<svg xmlns="http://www.w3.org/2000/svg" xmlns:xlink="http://www.w3.org/1999/xlink" contentStyleType="text/css" height="826px" preserveAspectRatio="none" style="width:865px;height:826px;background:#FFFFFF;" version="1.1" viewBox="0 0 865 826" width="865px" zoomAndPan="magnify"><title>Ingest Layer</title><defs/><g><text fill="#000000" font-family="sans-serif" font-size="14" font-weight="bold" lengthAdjust="spacing" textLength="98.4854" x="376.3867" y="27.9951">Ingest Layer</text><!--class EventKind--><g id="elem_EventKind"><rect codeLine="28" fill="#8E44AD" height="153.9922" id="EventKind" style="stroke:#6C3483;stroke-width:0.5;" width="210.2207" x="7" y="665.2969"/><ellipse cx="69.9255" cy="694.8477" fill="#ADD1B2" rx="11" ry="11" style="stroke:#181818;stroke-width:1;"/><path d="M72.8943,700.4883 Q72.3162,700.7852 71.6755,700.9258 Q71.0349,701.082 70.3318,701.082 Q67.8318,701.082 66.5037,699.4414 Q65.1912,697.7852 65.1912,694.6602 Q65.1912,691.5352 66.5037,689.8789 Q67.8318,688.2227 70.3318,688.2227 Q71.0349,688.2227 71.6755,688.3789 Q72.3318,688.5352 72.8943,688.832 L72.8943,691.5508 Q72.2693,690.9727 71.6755,690.707 Q71.0818,690.4258 70.4568,690.4258 Q69.113,690.4258 68.4255,691.5039 Q67.738,692.5664 67.738,694.6602 Q67.738,696.7539 68.4255,697.832 Q69.113,698.8945 70.4568,698.8945 Q71.0818,698.8945 71.6755,698.6289 Q72.2693,698.3477 72.8943,697.7695 L72.8943,700.4883 Z " fill="#000000"/><text fill="#000000" font-family="sans-serif" font-size="12" font-style="italic" lengthAdjust="spacing" textLength="52.541" x="102.0898" y="686.4355">&#171;Literal&#187;</text><text fill="#2C3E50" font-family="sans-serif" font-size="13" lengthAdjust="spacing" textLength="65.8696" x="95.4255" y="711.3325">EventKind</text><line style="stroke:#6C3483;stroke-width:0.5;" x1="8" x2="216.2207" y1="724.3984" y2="724.3984"/><text fill="#2C3E50" font-family="sans-serif" font-size="14" lengthAdjust="spacing" textLength="172.71" x="18" y="746.3936">"alloca" | "load" | "store"</text><text fill="#2C3E50" font-family="sans-serif" font-size="14" lengthAdjust="spacing" textLength="140.2119" x="18" y="772.6904">"binop" | "compare"</text><text fill="#2C3E50" font-family="sans-serif" font-size="14" lengthAdjust="spacing" textLength="188.2207" x="18" y="798.9873">"call" | "ret" | "br" | "other"</text><line style="stroke:#6C3483;stroke-width:0.5;" x1="8" x2="216.2207" y1="811.2891" y2="811.2891"/></g><!--class IREvent--><g id="elem_IREvent"><rect codeLine="35" fill="#27AE60" height="285.4766" id="IREvent" style="stroke:#1E8449;stroke-width:0.5;" width="192.1533" x="16" y="295.2969"/><ellipse cx="77.7725" cy="324.8477" fill="#ADD1B2" rx="11" ry="11" style="stroke:#181818;stroke-width:1;"/><path d="M80.7412,330.4883 Q80.1631,330.7852 79.5225,330.9258 Q78.8818,331.082 78.1787,331.082 Q75.6787,331.082 74.3506,329.4414 Q73.0381,327.7852 73.0381,324.6602 Q73.0381,321.5352 74.3506,319.8789 Q75.6787,318.2227 78.1787,318.2227 Q78.8818,318.2227 79.5225,318.3789 Q80.1787,318.5352 80.7412,318.832 L80.7412,321.5508 Q80.1162,320.9727 79.5225,320.707 Q78.9287,320.4258 78.3037,320.4258 Q76.96,320.4258 76.2725,321.5039 Q75.585,322.5664 75.585,324.6602 Q75.585,326.7539 76.2725,327.832 Q76.96,328.8945 78.3037,328.8945 Q78.9287,328.8945 79.5225,328.6289 Q80.1162,328.3477 80.7412,327.7695 L80.7412,330.4883 Z " fill="#000000"/><text fill="#000000" font-family="sans-serif" font-size="12" font-style="italic" lengthAdjust="spacing" textLength="51.709" x="102.4722" y="316.4355">&#171;ingest&#187;</text><text fill="#2C3E50" font-family="sans-serif" font-size="13" lengthAdjust="spacing" textLength="50.1084" x="103.2725" y="341.3325">IREvent</text><line style="stroke:#1E8449;stroke-width:0.5;" x1="17" x2="207.1533" y1="354.3984" y2="354.3984"/><text fill="#2C3E50" font-family="sans-serif" font-size="14" lengthAdjust="spacing" textLength="147.7793" x="27" y="376.3936">+function_name : str</text><text fill="#2C3E50" font-family="sans-serif" font-size="14" lengthAdjust="spacing" textLength="127.7363" x="27" y="402.6904">+block_name : str</text><text fill="#2C3E50" font-family="sans-serif" font-size="14" lengthAdjust="spacing" textLength="95.1016" x="27" y="428.9873">+opcode : str</text><text fill="#2C3E50" font-family="sans-serif" font-size="14" lengthAdjust="spacing" textLength="71.7637" x="27" y="455.2842">+text : str</text><text fill="#2C3E50" font-family="sans-serif" font-size="14" lengthAdjust="spacing" textLength="126.041" x="27" y="481.5811">+kind : EventKind</text><text fill="#2C3E50" font-family="sans-serif" font-size="14" lengthAdjust="spacing" textLength="166.0996" x="27" y="507.8779">+index_in_function : int</text><text fill="#2C3E50" font-family="sans-serif" font-size="14" lengthAdjust="spacing" textLength="170.1533" x="27" y="534.1748">+debug_line : int | None</text><text fill="#2C3E50" font-family="sans-serif" font-size="14" lengthAdjust="spacing" textLength="140.8271" x="27" y="560.4717">+operands : list[str]</text><line style="stroke:#1E8449;stroke-width:0.5;" x1="17" x2="207.1533" y1="572.7734" y2="572.7734"/></g><!--class CFGEdge--><g id="elem_CFGEdge"><rect codeLine="46" fill="#27AE60" height="180.2891" id="CFGEdge" style="stroke:#1E8449;stroke-width:0.5;" width="112.6855" x="243.5" y="347.7969"/><ellipse cx="263.6036" cy="377.3477" fill="#ADD1B2" rx="11" ry="11" style="stroke:#181818;stroke-width:1;"/><path d="M266.5723,382.9883 Q265.9942,383.2852 265.3536,383.4258 Q264.713,383.582 264.0098,383.582 Q261.5098,383.582 260.1817,381.9414 Q258.8692,380.2852 258.8692,377.1602 Q258.8692,374.0352 260.1817,372.3789 Q261.5098,370.7227 264.0098,370.7227 Q264.713,370.7227 265.3536,370.8789 Q266.0098,371.0352 266.5723,371.332 L266.5723,374.0508 Q265.9473,373.4727 265.3536,373.207 Q264.7598,372.9258 264.1348,372.9258 Q262.7911,372.9258 262.1036,374.0039 Q261.4161,375.0664 261.4161,377.1602 Q261.4161,379.2539 262.1036,380.332 Q262.7911,381.3945 264.1348,381.3945 Q264.7598,381.3945 265.3536,381.1289 Q265.9473,380.8477 266.5723,380.2695 L266.5723,382.9883 Z " fill="#000000"/><text fill="#000000" font-family="sans-serif" font-size="12" font-style="italic" lengthAdjust="spacing" textLength="51.709" x="287.5553" y="368.9355">&#171;ingest&#187;</text><text fill="#2C3E50" font-family="sans-serif" font-size="13" lengthAdjust="spacing" textLength="59.3442" x="283.7377" y="393.8325">CFGEdge</text><line style="stroke:#1E8449;stroke-width:0.5;" x1="244.5" x2="355.1855" y1="406.8984" y2="406.8984"/><text fill="#2C3E50" font-family="sans-serif" font-size="14" lengthAdjust="spacing" textLength="90.6855" x="254.5" y="428.8936">+source : str</text><text fill="#2C3E50" font-family="sans-serif" font-size="14" lengthAdjust="spacing" textLength="86.7002" x="254.5" y="455.1904">+target : str</text><text fill="#2C3E50" font-family="sans-serif" font-size="14" lengthAdjust="spacing" textLength="73.6436" x="254.5" y="481.4873">+kind : str</text><text fill="#2C3E50" font-family="sans-serif" font-size="14" lengthAdjust="spacing" textLength="77.7451" x="254.5" y="507.7842">+label : str</text><line style="stroke:#1E8449;stroke-width:0.5;" x1="244.5" x2="355.1855" y1="520.0859" y2="520.0859"/></g><!--class ProgramEventStream--><g id="elem_ProgramEventStream"><rect codeLine="53" fill="#27AE60" height="180.2891" id="ProgramEventStream" style="stroke:#1E8449;stroke-width:0.5;" width="250.9697" x="117.5" y="54.2969"/><ellipse cx="163.771" cy="83.8477" fill="#ADD1B2" rx="11" ry="11" style="stroke:#181818;stroke-width:1;"/><path d="M166.7397,89.4883 Q166.1616,89.7852 165.521,89.9258 Q164.8804,90.082 164.1772,90.082 Q161.6772,90.082 160.3491,88.4414 Q159.0366,86.7852 159.0366,83.6602 Q159.0366,80.5352 160.3491,78.8789 Q161.6772,77.2227 164.1772,77.2227 Q164.8804,77.2227 165.521,77.3789 Q166.1772,77.5352 166.7397,77.832 L166.7397,80.5508 Q166.1147,79.9727 165.521,79.707 Q164.9272,79.4258 164.3022,79.4258 Q162.9585,79.4258 162.271,80.5039 Q161.5835,81.5664 161.5835,83.6602 Q161.5835,85.7539 162.271,86.832 Q162.9585,87.8945 164.3022,87.8945 Q164.9272,87.8945 165.521,87.6289 Q166.1147,87.3477 166.7397,86.7695 L166.7397,89.4883 Z " fill="#000000"/><text fill="#000000" font-family="sans-serif" font-size="12" font-style="italic" lengthAdjust="spacing" textLength="51.709" x="233.3804" y="75.4355">&#171;ingest&#187;</text><text fill="#2C3E50" font-family="sans-serif" font-size="13" lengthAdjust="spacing" textLength="139.9277" x="189.271" y="100.3325">ProgramEventStream</text><line style="stroke:#1E8449;stroke-width:0.5;" x1="118.5" x2="367.4697" y1="113.3984" y2="113.3984"/><text fill="#2C3E50" font-family="sans-serif" font-size="14" lengthAdjust="spacing" textLength="129.5137" x="128.5" y="135.3936">+source_path : str</text><text fill="#2C3E50" font-family="sans-serif" font-size="14" lengthAdjust="spacing" textLength="157.9648" x="128.5" y="161.6904">+events : list[IREvent]</text><text fill="#2C3E50" font-family="sans-serif" font-size="14" lengthAdjust="spacing" textLength="191.5498" x="128.5" y="187.9873">+cfg_edges : list[CFGEdge]</text><text fill="#2C3E50" font-family="sans-serif" font-size="14" lengthAdjust="spacing" textLength="228.9697" x="128.5" y="214.2842">+display_lines : dict[str, list[str]]</text><line style="stroke:#1E8449;stroke-width:0.5;" x1="118.5" x2="367.4697" y1="226.5859" y2="226.5859"/></g><!--class DotNodeLayout--><g id="elem_DotNodeLayout"><rect codeLine="60" fill="#27AE60" height="232.8828" id="DotNodeLayout" style="stroke:#1E8449;stroke-width:0.5;" width="143.1816" x="391.5" y="321.2969"/><ellipse cx="406.5" cy="350.8477" fill="#ADD1B2" rx="11" ry="11" style="stroke:#181818;stroke-width:1;"/><path d="M409.4688,356.4883 Q408.8906,356.7852 408.25,356.9258 Q407.6094,357.082 406.9063,357.082 Q404.4063,357.082 403.0781,355.4414 Q401.7656,353.7852 401.7656,350.6602 Q401.7656,347.5352 403.0781,345.8789 Q404.4063,344.2227 406.9063,344.2227 Q407.6094,344.2227 408.25,344.3789 Q408.9063,344.5352 409.4688,344.832 L409.4688,347.5508 Q408.8438,346.9727 408.25,346.707 Q407.6563,346.4258 407.0313,346.4258 Q405.6875,346.4258 405,347.5039 Q404.3125,348.5664 404.3125,350.6602 Q404.3125,352.7539 405,353.832 Q405.6875,354.8945 407.0313,354.8945 Q407.6563,354.8945 408.25,354.6289 Q408.8438,354.3477 409.4688,353.7695 L409.4688,356.4883 Z " fill="#000000"/><text fill="#000000" font-family="sans-serif" font-size="12" font-style="italic" lengthAdjust="spacing" textLength="51.709" x="450.2363" y="342.4355">&#171;ingest&#187;</text><text fill="#2C3E50" font-family="sans-serif" font-size="13" lengthAdjust="spacing" textLength="101.1816" x="425.5" y="367.3325">DotNodeLayout</text><line style="stroke:#1E8449;stroke-width:0.5;" x1="392.5" x2="533.6816" y1="380.3984" y2="380.3984"/><text fill="#2C3E50" font-family="sans-serif" font-size="14" lengthAdjust="spacing" textLength="83.5898" x="402.5" y="402.3936">+name : str</text><text fill="#2C3E50" font-family="sans-serif" font-size="14" lengthAdjust="spacing" textLength="77.7451" x="402.5" y="428.6904">+label : str</text><text fill="#2C3E50" font-family="sans-serif" font-size="14" lengthAdjust="spacing" textLength="117.127" x="402.5" y="454.9873">+center_x : float</text><text fill="#2C3E50" font-family="sans-serif" font-size="14" lengthAdjust="spacing" textLength="117.127" x="402.5" y="481.2842">+center_y : float</text><text fill="#2C3E50" font-family="sans-serif" font-size="14" lengthAdjust="spacing" textLength="95.3887" x="402.5" y="507.5811">+width : float</text><text fill="#2C3E50" font-family="sans-serif" font-size="14" lengthAdjust="spacing" textLength="101.4248" x="402.5" y="533.8779">+height : float</text><line style="stroke:#1E8449;stroke-width:0.5;" x1="392.5" x2="533.6816" y1="546.1797" y2="546.1797"/></g><!--class DotEdgeLayout--><g id="elem_DotEdgeLayout"><rect codeLine="69" fill="#27AE60" height="206.5859" id="DotEdgeLayout" style="stroke:#1E8449;stroke-width:0.5;" width="288.7588" x="569.5" y="334.2969"/><ellipse cx="654.6448" cy="363.8477" fill="#ADD1B2" rx="11" ry="11" style="stroke:#181818;stroke-width:1;"/><path d="M657.6135,369.4883 Q657.0354,369.7852 656.3948,369.9258 Q655.7542,370.082 655.051,370.082 Q652.551,370.082 651.2229,368.4414 Q649.9104,366.7852 649.9104,363.6602 Q649.9104,360.5352 651.2229,358.8789 Q652.551,357.2227 655.051,357.2227 Q655.7542,357.2227 656.3948,357.3789 Q657.051,357.5352 657.6135,357.832 L657.6135,360.5508 Q656.9885,359.9727 656.3948,359.707 Q655.801,359.4258 655.176,359.4258 Q653.8323,359.4258 653.1448,360.5039 Q652.4573,361.5664 652.4573,363.6602 Q652.4573,365.7539 653.1448,366.832 Q653.8323,367.8945 655.176,367.8945 Q655.801,367.8945 656.3948,367.6289 Q656.9885,367.3477 657.6135,366.7695 L657.6135,369.4883 Z " fill="#000000"/><text fill="#000000" font-family="sans-serif" font-size="12" font-style="italic" lengthAdjust="spacing" textLength="51.709" x="704.2749" y="355.4355">&#171;ingest&#187;</text><text fill="#2C3E50" font-family="sans-serif" font-size="13" lengthAdjust="spacing" textLength="99.9692" x="680.1448" y="380.3325">DotEdgeLayout</text><line style="stroke:#1E8449;stroke-width:0.5;" x1="570.5" x2="857.2588" y1="393.3984" y2="393.3984"/><text fill="#2C3E50" font-family="sans-serif" font-size="14" lengthAdjust="spacing" textLength="90.6855" x="580.5" y="415.3936">+source : str</text><text fill="#2C3E50" font-family="sans-serif" font-size="14" lengthAdjust="spacing" textLength="86.7002" x="580.5" y="441.6904">+target : str</text><text fill="#2C3E50" font-family="sans-serif" font-size="14" lengthAdjust="spacing" textLength="77.7451" x="580.5" y="467.9873">+label : str</text><text fill="#2C3E50" font-family="sans-serif" font-size="14" lengthAdjust="spacing" textLength="94.4316" x="580.5" y="494.2842">+tailport : str</text><text fill="#2C3E50" font-family="sans-serif" font-size="14" lengthAdjust="spacing" textLength="266.7588" x="580.5" y="520.5811">+spline_points : list[tuple[float, float]]</text><line style="stroke:#1E8449;stroke-width:0.5;" x1="570.5" x2="857.2588" y1="532.8828" y2="532.8828"/></g><!--class DotLayout--><g id="elem_DotLayout"><rect codeLine="77" fill="#27AE60" height="153.9922" id="DotLayout" style="stroke:#1E8449;stroke-width:0.5;" width="345.0049" x="472.5" y="67.2969"/><ellipse cx="602.1257" cy="96.8477" fill="#ADD1B2" rx="11" ry="11" style="stroke:#181818;stroke-width:1;"/><path d="M605.0945,102.4883 Q604.5164,102.7852 603.8757,102.9258 Q603.2351,103.082 602.532,103.082 Q600.032,103.082 598.7039,101.4414 Q597.3914,99.7852 597.3914,96.6602 Q597.3914,93.5352 598.7039,91.8789 Q600.032,90.2227 602.532,90.2227 Q603.2351,90.2227 603.8757,90.3789 Q604.532,90.5352 605.0945,90.832 L605.0945,93.5508 Q604.4695,92.9727 603.8757,92.707 Q603.282,92.4258 602.657,92.4258 Q601.3132,92.4258 600.6257,93.5039 Q599.9382,94.5664 599.9382,96.6602 Q599.9382,98.7539 600.6257,99.832 Q601.3132,100.8945 602.657,100.8945 Q603.282,100.8945 603.8757,100.6289 Q604.4695,100.3477 605.0945,99.7695 L605.0945,102.4883 Z " fill="#000000"/><text fill="#000000" font-family="sans-serif" font-size="12" font-style="italic" lengthAdjust="spacing" textLength="51.709" x="635.3979" y="88.4355">&#171;ingest&#187;</text><text fill="#2C3E50" font-family="sans-serif" font-size="13" lengthAdjust="spacing" textLength="67.2534" x="627.6257" y="113.3325">DotLayout</text><line style="stroke:#1E8449;stroke-width:0.5;" x1="473.5" x2="816.5049" y1="126.3984" y2="126.3984"/><text fill="#2C3E50" font-family="sans-serif" font-size="14" lengthAdjust="spacing" textLength="240.8711" x="483.5" y="148.3936">+nodes : dict[str, DotNodeLayout]</text><text fill="#2C3E50" font-family="sans-serif" font-size="14" lengthAdjust="spacing" textLength="206.7871" x="483.5" y="174.6904">+edges : list[DotEdgeLayout]</text><text fill="#2C3E50" font-family="sans-serif" font-size="14" lengthAdjust="spacing" textLength="323.0049" x="483.5" y="200.9873">+bounding_box : tuple[float, float, float, float]</text><line style="stroke:#1E8449;stroke-width:0.5;" x1="473.5" x2="816.5049" y1="213.2891" y2="213.2891"/></g><!--link ProgramEventStream to IREvent--><g id="link_ProgramEventStream_IREvent"><path codeLine="84" d="M198.0637,245.2835 C189.4137,264.5435 187.4279,268.9434 178.1279,289.6534 " fill="none" id="ProgramEventStream-IREvent" style="stroke:#555555;stroke-width:1;"/><polygon fill="#555555" points="202.98,234.3369,196.8729,238.1714,198.0637,245.2835,204.1707,241.449,202.98,234.3369" style="stroke:#555555;stroke-width:1;"/><polygon fill="#555555" points="175.67,295.1269,183.0058,288.5553,177.7183,290.5657,175.7079,285.2781,175.67,295.1269" style="stroke:#555555;stroke-width:1;"/><text fill="#555555" font-family="sans-serif" font-size="12" lengthAdjust="spacing" textLength="59.6074" x="113.3695" y="279.3668">events [*]</text></g><!--link ProgramEventStream to CFGEdge--><g id="link_ProgramEventStream_CFGEdge"><path codeLine="85" d="M262.713,246.1138 C269.753,282.1138 274.4082,305.9185 281.4482,341.9085 " fill="none" id="ProgramEventStream-CFGEdge" style="stroke:#555555;stroke-width:1;"/><polygon fill="#555555" points="260.41,234.3369,257.6359,240.993,262.713,246.1138,265.4872,239.4577,260.41,234.3369" style="stroke:#555555;stroke-width:1;"/><polygon fill="#555555" points="282.6,347.7969,284.7979,338.1964,281.6401,342.8899,276.9467,339.7322,282.6,347.7969" style="stroke:#555555;stroke-width:1;"/><text fill="#555555" font-family="sans-serif" font-size="12" lengthAdjust="spacing" textLength="79.8691" x="290.0663" y="331.926">cfg_edges [*]</text></g><!--link DotLayout to DotNodeLayout--><g id="link_DotLayout_DotNodeLayout"><path codeLine="87" d="M591.0642,231.6855 C571.8942,262.3855 558.8974,283.1973 537.8274,316.9473 " fill="none" id="DotLayout-DotNodeLayout" style="stroke:#555555;stroke-width:1;"/><polygon fill="#555555" points="597.42,221.5069,590.8492,224.4776,591.0642,231.6855,597.635,228.7148,597.42,221.5069" style="stroke:#555555;stroke-width:1;"/><polygon fill="#555555" points="534.65,322.0369,542.8092,316.5208,537.2978,317.7955,536.0231,312.2842,534.65,322.0369" style="stroke:#555555;stroke-width:1;"/><text fill="#555555" font-family="sans-serif" font-size="12" lengthAdjust="spacing" textLength="55.377" x="547.6315" y="305.4738">nodes [*]</text></g><!--link DotLayout to DotEdgeLayout--><g id="link_DotLayout_DotEdgeLayout"><path codeLine="88" d="M665.8025,233.1846 C673.9425,267.5946 679.5475,291.2483 688.3275,328.3283 " fill="none" id="DotLayout-DotEdgeLayout" style="stroke:#555555;stroke-width:1;"/><polygon fill="#555555" points="663.04,221.5069,660.5287,228.2665,665.8025,233.1846,668.3138,226.4249,663.04,221.5069" style="stroke:#555555;stroke-width:1;"/><polygon fill="#555555" points="689.71,334.1669,691.5286,324.4874,688.5579,329.3014,683.7439,326.3307,689.71,334.1669" style="stroke:#555555;stroke-width:1;"/><text fill="#555555" font-family="sans-serif" font-size="12" lengthAdjust="spacing" textLength="55.4297" x="625.3877" y="318.5438">edges [*]</text></g><!--link IREvent to EventKind--><g id="link_IREvent_EventKind"><path codeLine="90" d="M112,580.3069 C112,609.5169 112,633.2269 112,659.0269 " fill="none" id="IREvent-to-EventKind" style="stroke:#555555;stroke-width:1;stroke-dasharray:7.0,7.0;"/><polygon fill="#555555" points="112,665.0269,116,656.0269,112,660.0269,108,656.0269,112,665.0269" style="stroke:#555555;stroke-width:1;"/><text fill="#555555" font-family="sans-serif" font-size="12" lengthAdjust="spacing" textLength="71.4961" x="118" y="627.4355">&#171;uses&#187; kind</text></g><!--SRC=[pLNTJjim6BtFKrZjnIG626XX3A5AZC66XX22IrH5JlmbjMhio746x4VQG-mjzWYxur7s9FlYE3zkMiRTY2gbFT-n_PrpRDTm8u2SoHHoGyxf0-WWoETSPbJJMn8BckT7ncWU5GREOYMl-HSWMntAaTRgxbW9fSbmrpwBnLCbpJy9TjxjdKxfaZB6PKgwz2jLI7Qij0IDJImsIhu619zskf7z_H4e0zsYuy32xsWyJtKr8JPtU7ZE3MWg9XCot8VncBAAfZIExb7APxWNZyRxesRHfIIadTh7qXeldrez6S5kiklpdvf_9yO1MojKSHjjGtOZtb3Os-hhMqQs0xPXVpn-kwXq5VsvcZlZXq0Jccol5DrRgbRzFGXUaJy_V-27E6T8ReeeT-1B-0JLzZpv3D9yufAHReZLfXrG8LHC1-GR6GX5cVsI6wLXKDKZBbLcqLZTugQlyHW7MbY3iUz8svSoCz03pnvtoXarr3O4_zKZPyhPbRM5T2Ak77bDaaB6XYiPIdeBv01ZrQuIeLVpFgooM34VCd1lF61U-d_GPk5W_0Rt8PTXlIXok3IkoY0gqb1m2HMC1bye2Sso6ALaETO4pyqDBZOjZQy47fz-E64fB1EOgqB72_rIdSBIZbj0q0Y4GvfbBhLAyIQqkgwD1hmKLwuOPjJCl2cX7DO8S9bCNJ5EqX1GGbDtakewutacw8Frf-Gm7biJrbixEdwyL-O2KyB_6bKiZRqNQrUlwmYx0ntU8vZWQJ4-_B00tt5cvNQn6V1qPXgmsrqfRNLtpykitxAXN6HA-pJq3JqBCyKxxfiY4t1Z-rglsbkmxmdhq5W_0S_jEZ0lJ4znpOZAMngd3oDLcjnloNzDlNlc2WGjZr0-uzcBkeQNd96rZOq96RZjVxCs7PJwtVvVpMzFX1tYpaCGjE5Kl2eFo_62w14xatbv145zFsvkJZf_80VayLU15_ZZRtiz17y1]--></g></svg>