<svg xmlns="http://www.w3.org/2000/svg" xmlns:xlink="http://www.w3.org/1999/xlink" contentStyleType="text/css" height="1011px" preserveAspectRatio="none" style="width:1320px;height:1011px;background:#FFFFFF;" version="1.1" viewBox="0 0 1320 1011" width="1320px" zoomAndPan="magnify"><title>Transform Layer</title><defs/><g><text fill="#000000" font-family="sans-serif" font-size="14" font-weight="bold" lengthAdjust="spacing" textLength="130.1699" x="587.9424" y="27.9951">Transform Layer</text><!--class BlockRole--><g id="elem_BlockRole"><rect codeLine="32" fill="#8E44AD" height="75.1016" id="BlockRole" style="stroke:#6C3483;stroke-width:0.5;" width="105.7559" x="7" y="916.2969"/><ellipse cx="22" cy="945.8477" fill="#ADD1B2" rx="11" ry="11" style="stroke:#181818;stroke-width:1;"/><path d="M24.9688,951.4883 Q24.3906,951.7852 23.75,951.9258 Q23.1094,952.082 22.4063,952.082 Q19.9063,952.082 18.5781,950.4414 Q17.2656,948.7852 17.2656,945.6602 Q17.2656,942.5352 18.5781,940.8789 Q19.9063,939.2227 22.4063,939.2227 Q23.1094,939.2227 23.75,939.3789 Q24.4063,939.5352 24.9688,939.832 L24.9688,942.5508 Q24.3438,941.9727 23.75,941.707 Q23.1563,941.4258 22.5313,941.4258 Q21.1875,941.4258 20.5,942.5039 Q19.8125,943.5664 19.8125,945.6602 Q19.8125,947.7539 20.5,948.832 Q21.1875,949.8945 22.5313,949.8945 Q23.1563,949.8945 23.75,949.6289 Q24.3438,949.3477 24.9688,948.7695 L24.9688,951.4883 Z " fill="#000000"/><text fill="#000000" font-family="sans-serif" font-size="12" font-style="italic" lengthAdjust="spacing" textLength="52.541" x="46.6074" y="937.4355">&#171;Literal&#187;</text><text fill="#2C3E50" font-family="sans-serif" font-size="13" lengthAdjust="spacing" textLength="63.7559" x="41" y="962.3325">BlockRole</text><line style="stroke:#6C3483;stroke-width:0.5;" x1="8" x2="111.7559" y1="975.3984" y2="975.3984"/><line style="stroke:#6C3483;stroke-width:0.5;" x1="8" x2="111.7559" y1="983.3984" y2="983.3984"/></g><!--class ActionKind--><g id="elem_ActionKind"><rect codeLine="33" fill="#8E44AD" height="75.1016" id="ActionKind" style="stroke:#6C3483;stroke-width:0.5;" width="111.5703" x="348" y="916.2969"/><ellipse cx="363" cy="945.8477" fill="#ADD1B2" rx="11" ry="11" style="stroke:#181818;stroke-width:1;"/><path d="M365.9688,951.4883 Q365.3906,951.7852 364.75,951.9258 Q364.1094,952.082 363.4063,952.082 Q360.9063,952.082 359.5781,950.4414 Q358.2656,948.7852 358.2656,945.6602 Q358.2656,942.5352 359.5781,940.8789 Q360.9063,939.2227 363.4063,939.2227 Q364.1094,939.2227 364.75,939.3789 Q365.4063,939.5352 365.9688,939.832 L365.9688,942.5508 Q365.3438,941.9727 364.75,941.707 Q364.1563,941.4258 363.5313,941.4258 Q362.1875,941.4258 361.5,942.5039 Q360.8125,943.5664 360.8125,945.6602 Q360.8125,947.7539 361.5,948.832 Q362.1875,949.8945 363.5313,949.8945 Q364.1563,949.8945 364.75,949.6289 Q365.3438,949.3477 365.9688,948.7695 L365.9688,951.4883 Z " fill="#000000"/><text fill="#000000" font-family="sans-serif" font-size="12" font-style="italic" lengthAdjust="spacing" textLength="52.541" x="390.5146" y="937.4355">&#171;Literal&#187;</text><text fill="#2C3E50" font-family="sans-serif" font-size="13" lengthAdjust="spacing" textLength="69.5703" x="382" y="962.3325">ActionKind</text><line style="stroke:#6C3483;stroke-width:0.5;" x1="349" x2="458.5703" y1="975.3984" y2="975.3984"/><line style="stroke:#6C3483;stroke-width:0.5;" x1="349" x2="458.5703" y1="983.3984" y2="983.3984"/></g><!--class IREvent--><g id="elem_IREvent"><rect codeLine="34" fill="#A9DFBF" height="101.3984" id="IREvent" style="stroke:#27AE60;stroke-width:0.5;" width="119.6924" x="148" y="903.2969"/><ellipse cx="167.1005" cy="932.8477" fill="#ADD1B2" rx="11" ry="11" style="stroke:#181818;stroke-width:1;"/><path d="M170.0693,938.4883 Q169.4912,938.7852 168.8505,938.9258 Q168.2099,939.082 167.5068,939.082 Q165.0068,939.082 163.6787,937.4414 Q162.3662,935.7852 162.3662,932.6602 Q162.3662,929.5352 163.6787,927.8789 Q165.0068,926.2227 167.5068,926.2227 Q168.2099,926.2227 168.8505,926.3789 Q169.5068,926.5352 170.0693,926.832 L170.0693,929.5508 Q169.4443,928.9727 168.8505,928.707 Q168.2568,928.4258 167.6318,928.4258 Q166.288,928.4258 165.6005,929.5039 Q164.913,930.5664 164.913,932.6602 Q164.913,934.7539 165.6005,935.832 Q166.288,936.8945 167.6318,936.8945 Q168.2568,936.8945 168.8505,936.6289 Q169.4443,936.3477 170.0693,935.7695 L170.0693,938.4883 Z " fill="#000000"/><text fill="#000000" font-family="sans-serif" font-size="12" font-style="italic" lengthAdjust="spacing" textLength="72.5801" x="185.0118" y="924.4355">&#171;ingest-ref&#187;</text><text fill="#1E8449" font-family="sans-serif" font-size="13" lengthAdjust="spacing" textLength="50.1084" x="196.2476" y="949.3325">IREvent</text><line style="stroke:#27AE60;stroke-width:0.5;" x1="149" x2="266.6924" y1="962.3984" y2="962.3984"/><line style="stroke:#27AE60;stroke-width:0.5;" x1="149" x2="266.6924" y1="970.3984" y2="970.3984"/><text fill="#000000" font-family="sans-serif" font-size="14" lengthAdjust="spacing" textLength="97.6924" x="159" y="992.3936">(Ingest Layer)</text></g><!--class CFGBlock--><g id="elem_CFGBlock"><rect codeLine="39" fill="#E67E22" height="469.5547" id="CFGBlock" style="stroke:#CA6F1E;stroke-width:0.5;" width="248.8916" x="24.5" y="348.2969"/><ellipse cx="104.77" cy="377.8477" fill="#ADD1B2" rx="11" ry="11" style="stroke:#181818;stroke-width:1;"/><path d="M107.7388,383.4883 Q107.1606,383.7852 106.52,383.9258 Q105.8794,384.082 105.1763,384.082 Q102.6763,384.082 101.3481,382.4414 Q100.0356,380.7852 100.0356,377.6602 Q100.0356,374.5352 101.3481,372.8789 Q102.6763,371.2227 105.1763,371.2227 Q105.8794,371.2227 106.52,371.3789 Q107.1763,371.5352 107.7388,371.832 L107.7388,374.5508 Q107.1138,373.9727 106.52,373.707 Q105.9263,373.4258 105.3013,373.4258 Q103.9575,373.4258 103.27,374.5039 Q102.5825,375.5664 102.5825,377.6602 Q102.5825,379.7539 103.27,380.832 Q103.9575,381.8945 105.3013,381.8945 Q105.9263,381.8945 106.52,381.6289 Q107.1138,381.3477 107.7388,380.7695 L107.7388,383.4883 Z " fill="#000000"/><text fill="#000000" font-family="sans-serif" font-size="12" font-style="italic" lengthAdjust="spacing" textLength="73.8516" x="128.27" y="369.4355">&#171;transform&#187;</text><text fill="#2C3E50" font-family="sans-serif" font-size="13" lengthAdjust="spacing" textLength="61.7881" x="134.3018" y="394.3325">CFGBlock</text><line style="stroke:#CA6F1E;stroke-width:0.5;" x1="25.5" x2="272.3916" y1="407.3984" y2="407.3984"/><text fill="#2C3E50" font-family="sans-serif" font-size="14" lengthAdjust="spacing" textLength="56.6631" x="35.5" y="429.3936">+id : str</text><text fill="#2C3E50" font-family="sans-serif" font-size="14" lengthAdjust="spacing" textLength="83.5898" x="35.5" y="455.6904">+name : str</text><text fill="#2C3E50" font-family="sans-serif" font-size="14" lengthAdjust="spacing" textLength="147.7793" x="35.5" y="481.9873">+function_name : str</text><text fill="#2C3E50" font-family="sans-serif" font-size="14" lengthAdjust="spacing" textLength="120.832" x="35.5" y="508.2842">+role : BlockRole</text><text fill="#2C3E50" font-family="sans-serif" font-size="14" lengthAdjust="spacing" textLength="157.9648" x="35.5" y="534.5811">+events : list[IREvent]</text><text fill="#2C3E50" font-family="sans-serif" font-size="14" lengthAdjust="spacing" textLength="201.0381" x="35.5" y="560.8779">+memory_ops : list[IREvent]</text><text fill="#2C3E50" font-family="sans-serif" font-size="14" lengthAdjust="spacing" textLength="226.8916" x="35.5" y="587.1748">+terminator_opcode : str | None</text><text fill="#2C3E50" font-family="sans-serif" font-size="14" lengthAdjust="spacing" textLength="105.7314" x="35.5" y="613.4717">+indegree : int</text><text fill="#2C3E50" font-family="sans-serif" font-size="14" lengthAdjust="spacing" textLength="115.8965" x="35.5" y="639.7686">+outdegree : int</text><text fill="#2C3E50" font-family="sans-serif" font-size="14" lengthAdjust="spacing" textLength="129.0078" x="35.5" y="666.0654">+idom : str | None</text><text fill="#2C3E50" font-family="sans-serif" font-size="14" lengthAdjust="spacing" textLength="122.4385" x="35.5" y="692.3623">+dom_depth : int</text><text fill="#2C3E50" font-family="sans-serif" font-size="14" lengthAdjust="spacing" textLength="159.667" x="35.5" y="718.6592">+is_loop_header : bool</text><text fill="#2C3E50" font-family="sans-serif" font-size="14" lengthAdjust="spacing" textLength="121.2559" x="35.5" y="744.9561">+loop_depth : int</text><text fill="#2C3E50" font-family="sans-serif" font-size="14" lengthAdjust="spacing" textLength="143.7119" x="35.5" y="771.2529">+loop_id : str | None</text><text fill="#2C3E50" font-family="sans-serif" font-size="14" lengthAdjust="spacing" textLength="191.5225" x="35.5" y="797.5498">+is_backedge_target : bool</text><line style="stroke:#CA6F1E;stroke-width:0.5;" x1="25.5" x2="272.3916" y1="809.8516" y2="809.8516"/></g><!--class BlockMetadata--><g id="elem_BlockMetadata"><rect codeLine="57" fill="#E67E22" height="232.8828" id="BlockMetadata" style="stroke:#CA6F1E;stroke-width:0.5;" width="213.5225" x="947" y="54.2969"/><ellipse cx="996.1516" cy="83.8477" fill="#ADD1B2" rx="11" ry="11" style="stroke:#181818;stroke-width:1;"/><path d="M999.1204,89.4883 Q998.5422,89.7852 997.9016,89.9258 Q997.261,90.082 996.5579,90.082 Q994.0579,90.082 992.7297,88.4414 Q991.4172,86.7852 991.4172,83.6602 Q991.4172,80.5352 992.7297,78.8789 Q994.0579,77.2227 996.5579,77.2227 Q997.261,77.2227 997.9016,77.3789 Q998.5579,77.5352 999.1204,77.832 L999.1204,80.5508 Q998.4954,79.9727 997.9016,79.707 Q997.3079,79.4258 996.6829,79.4258 Q995.3391,79.4258 994.6516,80.5039 Q993.9641,81.5664 993.9641,83.6602 Q993.9641,85.7539 994.6516,86.832 Q995.3391,87.8945 996.6829,87.8945 Q997.3079,87.8945 997.9016,87.6289 Q998.4954,87.3477 999.1204,86.7695 L999.1204,89.4883 Z " fill="#000000"/><text fill="#000000" font-family="sans-serif" font-size="12" font-style="italic" lengthAdjust="spacing" textLength="73.8516" x="1033.0854" y="75.4355">&#171;transform&#187;</text><text fill="#2C3E50" font-family="sans-serif" font-size="13" lengthAdjust="spacing" textLength="96.7192" x="1021.6516" y="100.3325">BlockMetadata</text><line style="stroke:#CA6F1E;stroke-width:0.5;" x1="948" x2="1159.5225" y1="113.3984" y2="113.3984"/><text fill="#2C3E50" font-family="sans-serif" font-size="14" lengthAdjust="spacing" textLength="129.0078" x="958" y="135.3936">+idom : str | None</text><text fill="#2C3E50" font-family="sans-serif" font-size="14" lengthAdjust="spacing" textLength="122.4385" x="958" y="161.6904">+dom_depth : int</text><text fill="#2C3E50" font-family="sans-serif" font-size="14" lengthAdjust="spacing" textLength="159.667" x="958" y="187.9873">+is_loop_header : bool</text><text fill="#2C3E50" font-family="sans-serif" font-size="14" lengthAdjust="spacing" textLength="121.2559" x="958" y="214.2842">+loop_depth : int</text><text fill="#2C3E50" font-family="sans-serif" font-size="14" lengthAdjust="spacing" textLength="143.7119" x="958" y="240.5811">+loop_id : str | None</text><text fill="#2C3E50" font-family="sans-serif" font-size="14" lengthAdjust="spacing" textLength="191.5225" x="958" y="266.8779">+is_backedge_target : bool</text><line style="stroke:#CA6F1E;stroke-width:0.5;" x1="948" x2="1159.5225" y1="279.1797" y2="279.1797"/></g><!--class AnimationCommand--><g id="elem_AnimationCommand"><rect codeLine="66" fill="#E67E22" height="180.2891" id="AnimationCommand" style="stroke:#CA6F1E;stroke-width:0.5;" width="191.3262" x="308.5" y="493.2969"/><ellipse cx="330.8057" cy="522.8477" fill="#ADD1B2" rx="11" ry="11" style="stroke:#181818;stroke-width:1;"/><path d="M333.7744,528.4883 Q333.1963,528.7852 332.5557,528.9258 Q331.9151,529.082 331.2119,529.082 Q328.7119,529.082 327.3838,527.4414 Q326.0713,525.7852 326.0713,522.6602 Q326.0713,519.5352 327.3838,517.8789 Q328.7119,516.2227 331.2119,516.2227 Q331.9151,516.2227 332.5557,516.3789 Q333.2119,516.5352 333.7744,516.832 L333.7744,519.5508 Q333.1494,518.9727 332.5557,518.707 Q331.9619,518.4258 331.3369,518.4258 Q329.9932,518.4258 329.3057,519.5039 Q328.6182,520.5664 328.6182,522.6602 Q328.6182,524.7539 329.3057,525.832 Q329.9932,526.8945 331.3369,526.8945 Q331.9619,526.8945 332.5557,526.6289 Q333.1494,526.3477 333.7744,525.7695 L333.7744,528.4883 Z " fill="#000000"/><text fill="#000000" font-family="sans-serif" font-size="12" font-style="italic" lengthAdjust="spacing" textLength="73.8516" x="381.049" y="514.4355">&#171;transform&#187;</text><text fill="#2C3E50" font-family="sans-serif" font-size="13" lengthAdjust="spacing" textLength="133.0913" x="351.4292" y="539.3325">AnimationCommand</text><line style="stroke:#CA6F1E;stroke-width:0.5;" x1="309.5" x2="498.8262" y1="552.3984" y2="552.3984"/><text fill="#2C3E50" font-family="sans-serif" font-size="14" lengthAdjust="spacing" textLength="143.3633" x="319.5" y="574.3936">+action : ActionKind</text><text fill="#2C3E50" font-family="sans-serif" font-size="14" lengthAdjust="spacing" textLength="86.7002" x="319.5" y="600.6904">+target : str</text><text fill="#2C3E50" font-family="sans-serif" font-size="14" lengthAdjust="spacing" textLength="169.3262" x="319.5" y="626.9873">+event : IREvent | None</text><text fill="#2C3E50" font-family="sans-serif" font-size="14" lengthAdjust="spacing" textLength="169.1416" x="319.5" y="653.2842">+params : dict[str, Any]</text><line style="stroke:#CA6F1E;stroke-width:0.5;" x1="309.5" x2="498.8262" y1="665.5859" y2="665.5859"/></g><!--class SceneNode--><g id="elem_SceneNode"><rect codeLine="73" fill="#E67E22" height="206.5859" id="SceneNode" style="stroke:#CA6F1E;stroke-width:0.5;" width="210.1592" x="535" y="479.7969"/><ellipse cx="594.0481" cy="509.3477" fill="#ADD1B2" rx="11" ry="11" style="stroke:#181818;stroke-width:1;"/><path d="M597.0168,514.9883 Q596.4387,515.2852 595.7981,515.4258 Q595.1575,515.582 594.4543,515.582 Q591.9543,515.582 590.6262,513.9414 Q589.3137,512.2852 589.3137,509.1602 Q589.3137,506.0352 590.6262,504.3789 Q591.9543,502.7227 594.4543,502.7227 Q595.1575,502.7227 595.7981,502.8789 Q596.4543,503.0352 597.0168,503.332 L597.0168,506.0508 Q596.3918,505.4727 595.7981,505.207 Q595.2043,504.9258 594.5793,504.9258 Q593.2356,504.9258 592.5481,506.0039 Q591.8606,507.0664 591.8606,509.1602 Q591.8606,511.2539 592.5481,512.332 Q593.2356,513.3945 594.5793,513.3945 Q595.2043,513.3945 595.7981,513.1289 Q596.3918,512.8477 597.0168,512.2695 L597.0168,514.9883 Z " fill="#000000"/><text fill="#000000" font-family="sans-serif" font-size="12" font-style="italic" lengthAdjust="spacing" textLength="73.8516" x="619.4038" y="500.9355">&#171;transform&#187;</text><text fill="#2C3E50" font-family="sans-serif" font-size="13" lengthAdjust="spacing" textLength="73.563" x="619.5481" y="525.8325">SceneNode</text><line style="stroke:#CA6F1E;stroke-width:0.5;" x1="536" x2="744.1592" y1="538.8984" y2="538.8984"/><text fill="#2C3E50" font-family="sans-serif" font-size="14" lengthAdjust="spacing" textLength="56.6631" x="546" y="560.8936">+id : str</text><text fill="#2C3E50" font-family="sans-serif" font-size="14" lengthAdjust="spacing" textLength="77.7451" x="546" y="587.1904">+label : str</text><text fill="#2C3E50" font-family="sans-serif" font-size="14" lengthAdjust="spacing" textLength="73.6436" x="546" y="613.4873">+kind : str</text><text fill="#2C3E50" font-family="sans-serif" font-size="14" lengthAdjust="spacing" textLength="188.1592" x="546" y="639.7842">+properties : dict[str, Any]</text><text fill="#2C3E50" font-family="sans-serif" font-size="14" lengthAdjust="spacing" textLength="148.3877" x="546" y="666.0811">+animation_hint : str</text><line style="stroke:#CA6F1E;stroke-width:0.5;" x1="536" x2="744.1592" y1="678.3828" y2="678.3828"/></g><!--class SceneEdge--><g id="elem_SceneEdge"><rect codeLine="81" fill="#E67E22" height="206.5859" id="SceneEdge" style="stroke:#CA6F1E;stroke-width:0.5;" width="210.1592" x="780" y="479.7969"/><ellipse cx="839.6543" cy="509.3477" fill="#ADD1B2" rx="11" ry="11" style="stroke:#181818;stroke-width:1;"/><path d="M842.623,514.9883 Q842.0449,515.2852 841.4043,515.4258 Q840.7637,515.582 840.0605,515.582 Q837.5605,515.582 836.2324,513.9414 Q834.9199,512.2852 834.9199,509.1602 Q834.9199,506.0352 836.2324,504.3789 Q837.5605,502.7227 840.0605,502.7227 Q840.7637,502.7227 841.4043,502.8789 Q842.0605,503.0352 842.623,503.332 L842.623,506.0508 Q841.998,505.4727 841.4043,505.207 Q840.8105,504.9258 840.1855,504.9258 Q838.8418,504.9258 838.1543,506.0039 Q837.4668,507.0664 837.4668,509.1602 Q837.4668,511.2539 838.1543,512.332 Q838.8418,513.3945 840.1855,513.3945 Q840.8105,513.3945 841.4043,513.1289 Q841.998,512.8477 842.623,512.2695 L842.623,514.9883 Z " fill="#000000"/><text fill="#000000" font-family="sans-serif" font-size="12" font-style="italic" lengthAdjust="spacing" textLength="73.8516" x="864.4038" y="500.9355">&#171;transform&#187;</text><text fill="#2C3E50" font-family="sans-serif" font-size="13" lengthAdjust="spacing" textLength="72.3506" x="865.1543" y="525.8325">SceneEdge</text><line style="stroke:#CA6F1E;stroke-width:0.5;" x1="781" x2="989.1592" y1="538.8984" y2="538.8984"/><text fill="#2C3E50" font-family="sans-serif" font-size="14" lengthAdjust="spacing" textLength="90.6855" x="791" y="560.8936">+source : str</text><text fill="#2C3E50" font-family="sans-serif" font-size="14" lengthAdjust="spacing" textLength="86.7002" x="791" y="587.1904">+target : str</text><text fill="#2C3E50" font-family="sans-serif" font-size="14" lengthAdjust="spacing" textLength="77.7451" x="791" y="613.4873">+label : str</text><text fill="#2C3E50" font-family="sans-serif" font-size="14" lengthAdjust="spacing" textLength="73.6436" x="791" y="639.7842">+kind : str</text><text fill="#2C3E50" font-family="sans-serif" font-size="14" lengthAdjust="spacing" textLength="188.1592" x="791" y="666.0811">+properties : dict[str, Any]</text><line style="stroke:#CA6F1E;stroke-width:0.5;" x1="781" x2="989.1592" y1="678.3828" y2="678.3828"/></g><!--class TraceOverlay--><g id="elem_TraceOverlay"><rect codeLine="89" fill="#E67E22" height="180.2891" id="TraceOverlay" style="stroke:#CA6F1E;stroke-width:0.5;" width="288.0547" x="1025" y="493.2969"/><ellipse cx="1116.3086" cy="522.8477" fill="#ADD1B2" rx="11" ry="11" style="stroke:#181818;stroke-width:1;"/><path d="M1119.2773,528.4883 Q1118.6992,528.7852 1118.0586,528.9258 Q1117.418,529.082 1116.7148,529.082 Q1114.2148,529.082 1112.8867,527.4414 Q1111.5742,525.7852 1111.5742,522.6602 Q1111.5742,519.5352 1112.8867,517.8789 Q1114.2148,516.2227 1116.7148,516.2227 Q1117.418,516.2227 1118.0586,516.3789 Q1118.7148,516.5352 1119.2773,516.832 L1119.2773,519.5508 Q1118.6523,518.9727 1118.0586,518.707 Q1117.4648,518.4258 1116.8398,518.4258 Q1115.4961,518.4258 1114.8086,519.5039 Q1114.1211,520.5664 1114.1211,522.6602 Q1114.1211,524.7539 1114.8086,525.832 Q1115.4961,526.8945 1116.8398,526.8945 Q1117.4648,526.8945 1118.0586,526.6289 Q1118.6523,526.3477 1119.2773,525.7695 L1119.2773,528.4883 Z " fill="#000000"/><text fill="#000000" font-family="sans-serif" font-size="12" font-style="italic" lengthAdjust="spacing" textLength="73.8516" x="1148.3516" y="514.4355">&#171;transform&#187;</text><text fill="#2C3E50" font-family="sans-serif" font-size="13" lengthAdjust="spacing" textLength="86.9375" x="1141.8086" y="539.3325">TraceOverlay</text><line style="stroke:#CA6F1E;stroke-width:0.5;" x1="1026" x2="1312.0547" y1="552.3984" y2="552.3984"/><text fill="#2C3E50" font-family="sans-serif" font-size="14" lengthAdjust="spacing" textLength="156.9668" x="1036" y="574.3936">+entry_order : list[str]</text><text fill="#2C3E50" font-family="sans-serif" font-size="14" lengthAdjust="spacing" textLength="170.9531" x="1036" y="600.6904">+visited_nodes : list[str]</text><text fill="#2C3E50" font-family="sans-serif" font-size="14" lengthAdjust="spacing" textLength="266.0547" x="1036" y="626.9873">+traversed_edges : list[tuple[str, str]]</text><text fill="#2C3E50" font-family="sans-serif" font-size="14" lengthAdjust="spacing" textLength="180.2227" x="1036" y="653.2842">+termination_reason : str</text><line style="stroke:#CA6F1E;stroke-width:0.5;" x1="1026" x2="1312.0547" y1="665.5859" y2="665.5859"/></g><!--class SceneGraph--><g id="elem_SceneGraph"><rect codeLine="96" fill="#E67E22" height="180.2891" id="SceneGraph" style="stroke:#CA6F1E;stroke-width:0.5;" width="299.334" x="612.5" y="80.7969"/><ellipse cx="713.1616" cy="110.3477" fill="#ADD1B2" rx="11" ry="11" style="stroke:#181818;stroke-width:1;"/><path d="M716.1304,115.9883 Q715.5522,116.2852 714.9116,116.4258 Q714.271,116.582 713.5679,116.582 Q711.0679,116.582 709.7397,114.9414 Q708.4272,113.2852 708.4272,110.1602 Q708.4272,107.0352 709.7397,105.3789 Q711.0679,103.7227 713.5679,103.7227 Q714.271,103.7227 714.9116,103.8789 Q715.5679,104.0352 716.1304,104.332 L716.1304,107.0508 Q715.5054,106.4727 714.9116,106.207 Q714.3179,105.9258 713.6929,105.9258 Q712.3491,105.9258 711.6616,107.0039 Q710.9741,108.0664 710.9741,110.1602 Q710.9741,112.2539 711.6616,113.332 Q712.3491,114.3945 713.6929,114.3945 Q714.3179,114.3945 714.9116,114.1289 Q715.5054,113.8477 716.1304,113.2695 L716.1304,115.9883 Z " fill="#000000"/><text fill="#000000" font-family="sans-serif" font-size="12" font-style="italic" lengthAdjust="spacing" textLength="73.8516" x="741.4912" y="101.9355">&#171;transform&#187;</text><text fill="#2C3E50" font-family="sans-serif" font-size="13" lengthAdjust="spacing" textLength="79.5107" x="738.6616" y="126.8325">SceneGraph</text><line style="stroke:#CA6F1E;stroke-width:0.5;" x1="613.5" x2="910.834" y1="139.8984" y2="139.8984"/><text fill="#2C3E50" font-family="sans-serif" font-size="14" lengthAdjust="spacing" textLength="178.2881" x="623.5" y="161.8936">+nodes : list[SceneNode]</text><text fill="#2C3E50" font-family="sans-serif" font-size="14" lengthAdjust="spacing" textLength="177.0439" x="623.5" y="188.1904">+edges : list[SceneEdge]</text><text fill="#2C3E50" font-family="sans-serif" font-size="14" lengthAdjust="spacing" textLength="277.334" x="623.5" y="214.4873">+commands : list[AnimationCommand]</text><text fill="#2C3E50" font-family="sans-serif" font-size="14" lengthAdjust="spacing" textLength="221.0879" x="623.5" y="240.7842">+overlay : TraceOverlay | None</text><line style="stroke:#CA6F1E;stroke-width:0.5;" x1="613.5" x2="910.834" y1="253.0859" y2="253.0859"/></g><!--link CFGBlock to IREvent--><g id="link_CFGBlock_IREvent"><path codeLine="104" d="M176.2648,830.2726 C181.8848,861.9726 184.2743,873.8797 189.6343,897.1697 " fill="none" id="CFGBlock-IREvent" style="stroke:#555555;stroke-width:1;"/><polygon fill="#555555" points="174.17,818.4569,171.2788,825.063,176.2648,830.2726,179.156,823.6665,174.17,818.4569" style="stroke:#555555;stroke-width:1;"/><polygon fill="#555555" points="190.98,903.0169,192.8596,893.349,189.8586,898.1442,185.0634,895.1433,190.98,903.0169" style="stroke:#555555;stroke-width:1;"/><text fill="#555555" font-family="sans-serif" font-size="12" lengthAdjust="spacing" textLength="59.6074" x="119.7993" y="887.4375">events [*]</text></g><!--link CFGBlock to IREvent--><g id="link_CFGBlock_IREvent"><path codeLine="105" d="M201.2229,830.3383 C205.7129,862.0383 207.0966,873.7489 209.0966,897.0389 " fill="none" id="CFGBlock-IREvent-1" style="stroke:#555555;stroke-width:1;"/><polygon fill="#555555" points="199.54,818.4569,196.421,824.9585,201.2229,830.3383,204.3419,823.8366,199.54,818.4569" style="stroke:#555555;stroke-width:1;"/><polygon fill="#555555" points="209.61,903.0169,212.8253,893.7076,209.1822,898.0352,204.8546,894.3921,209.61,903.0169" style="stroke:#555555;stroke-width:1;"/><text fill="#555555" font-family="sans-serif" font-size="12" lengthAdjust="spacing" textLength="96.5273" x="222.3482" y="887.4375">memory_ops [*]</text></g><!--link CFGBlock to BlockRole--><g id="link_CFGBlock_BlockRole"><path codeLine="106" d="M92.45,818.4569 C83.28,856.4169 76.2591,885.4847 70.2891,910.1947 " fill="none" id="CFGBlock-to-BlockRole" style="stroke:#555555;stroke-width:1;stroke-dasharray:7.0,7.0;"/><polygon fill="#555555" points="68.88,916.0269,74.8817,908.218,70.0542,911.1667,67.1055,906.3392,68.88,916.0269" style="stroke:#555555;stroke-width:1;"/><text fill="#555555" font-family="sans-serif" font-size="12" lengthAdjust="spacing" textLength="68.9824" x="90" y="865.4355">&#171;uses&#187; role</text></g><!--link AnimationCommand to IREvent--><g id="link_AnimationCommand_IREvent"><path codeLine="108" d="M358.5,684.3139 C337.83,728.4439 316.75,771.3169 291,818.2969 C275.31,846.9269 259.4816,872.9388 243.6016,897.9988 " fill="none" id="AnimationCommand-IREvent" style="stroke:#555555;stroke-width:1;stroke-dasharray:7.0,7.0;"/><polygon fill="none" points="363.59,673.4469,357.4227,677.1837,358.5,684.3139,364.6673,680.577,363.59,673.4469" style="stroke:#555555;stroke-width:1;"/><polygon fill="#555555" points="240.39,903.0669,248.5861,897.6057,243.0663,898.8434,241.8286,893.3236,240.39,903.0669" style="stroke:#555555;stroke-width:1;"/><text fill="#555555" font-family="sans-serif" font-size="12" lengthAdjust="spacing" textLength="70.2539" x="280.817" y="900.2199">event [0..1]</text></g><!--link AnimationCommand to ActionKind--><g id="link_AnimationCommand_ActionKind"><path codeLine="109" d="M404,673.4969 C404,751.2469 404,854.0869 404,910.1769 " fill="none" id="AnimationCommand-to-ActionKind" style="stroke:#555555;stroke-width:1;stroke-dasharray:7.0,7.0;"/><polygon fill="#555555" points="404,916.1769,408,907.1769,404,911.1769,400,907.1769,404,916.1769" style="stroke:#555555;stroke-width:1;"/><text fill="#555555" font-family="sans-serif" font-size="12" lengthAdjust="spacing" textLength="82.9277" x="410" y="865.4355">&#171;uses&#187; action</text></g><!--link SceneGraph to SceneNode--><g id="link_SceneGraph_SceneNode"><path codeLine="111" d="M732.112,272.3698 C712.982,336.7498 692.2194,406.6055 672.2194,473.8955 " fill="none" id="SceneGraph-SceneNode" style="stroke:#555555;stroke-width:1;"/><polygon fill="#555555" points="735.53,260.8669,729.9867,265.479,732.112,272.3698,737.6553,267.7577,735.53,260.8669" style="stroke:#555555;stroke-width:1;"/><polygon fill="#555555" points="670.51,479.6469,676.9084,472.1595,671.9345,474.8541,669.2399,469.8803,670.51,479.6469" style="stroke:#555555;stroke-width:1;"/><text fill="#555555" font-family="sans-serif" font-size="12" lengthAdjust="spacing" textLength="55.377" x="610.366" y="464.0223">nodes [*]</text></g><!--link SceneGraph to SceneEdge--><g id="link_SceneGraph_SceneEdge"><path codeLine="112" d="M792.1342,272.362 C811.4242,336.742 832.358,406.6093 852.518,473.8993 " fill="none" id="SceneGraph-SceneEdge" style="stroke:#555555;stroke-width:1;"/><polygon fill="#555555" points="788.69,260.8669,786.5804,267.7625,792.1342,272.362,794.2438,265.4663,788.69,260.8669" style="stroke:#555555;stroke-width:1;"/><polygon fill="#555555" points="854.24,479.6469,855.4888,469.8775,852.805,474.8572,847.8253,472.1735,854.24,479.6469" style="stroke:#555555;stroke-width:1;"/><text fill="#555555" font-family="sans-serif" font-size="12" lengthAdjust="spacing" textLength="55.4297" x="789.407" y="464.0223">edges [*]</text></g><!--link SceneGraph to AnimationCommand--><g id="link_SceneGraph_AnimationCommand"><path codeLine="113" d="M603.6538,267.9641 C569.1738,293.2541 544.3,315.7669 517,348.2969 C481.26,390.8869 456.0048,441.1507 437.0748,487.5907 " fill="none" id="SceneGraph-AnimationCommand" style="stroke:#555555;stroke-width:1;"/><polygon fill="#555555" points="613.33,260.8669,606.1261,261.1901,603.6538,267.9641,610.8576,267.6409,613.33,260.8669" style="stroke:#555555;stroke-width:1;"/><polygon fill="#555555" points="434.81,493.1469,441.9113,486.3225,436.6973,488.5168,434.5031,483.3028,434.81,493.1469" style="stroke:#555555;stroke-width:1;"/><text fill="#555555" font-family="sans-serif" font-size="12" lengthAdjust="spacing" textLength="85.3242" x="343.3756" y="477.5792">commands [*]</text></g><!--link SceneGraph to TraceOverlay--><g id="link_SceneGraph_TraceOverlay"><path codeLine="114" d="M899.5232,267.9219 C953.2832,305.9919 996.19,337.2869 1007,348.2969 C1049.48,391.5869 1085.2703,442.0812 1114.3503,488.2112 " fill="none" id="SceneGraph-TraceOverlay" style="stroke:#555555;stroke-width:1;stroke-dasharray:7.0,7.0;"/><polygon fill="none" points="889.73,260.9869,892.3149,267.7188,899.5232,267.9219,896.9382,261.19,889.73,260.9869" style="stroke:#555555;stroke-width:1;"/><polygon fill="#555555" points="1117.55,493.2869,1116.1343,483.5403,1114.8836,489.0572,1109.3668,487.8065,1117.55,493.2869" style="stroke:#555555;stroke-width:1;"/><text fill="#555555" font-family="sans-serif" font-size="12" lengthAdjust="spacing" textLength="80.625" x="1023.9853" y="477.4151">overlay [0..1]</text></g><!--SRC=[pLLTJjmm47xFAQpkGrjQ43_ByYE410WeAgNLqZU48cyosRL8xCZsKb6Ar4Fq5Zr2tpXAJzAn4sUTP0D8LL6ZVTcPRyRVZByPQwPJ89ybvIeHCYEdz0Pa4AWhndCgQKQYb2grfxLaewc6aqZmS_OLoB87sPDIV3aGgP2ajsw_flD8SFqemEPTMVLSdsWSCpucFdmefZm-49A3H19DekGs8FZDqgtP_- -0nY1drdvWpViqkXhB8Y6IszavPHeaJNTtoUphRKA_J-CYG4ZCym3O1WoYjVxcMaNa4JW67DdF1bITVeXRBrc3zMIz7l3GKRtL22EMEwh65eFIYn8IBu9knSaeQLSz3rmSiK5XiDoikWkE0IkmsUzlTN3IJf5UM0y66x2wskOq3sm38Zf8Lg39gGl-r9lmuti995kmqNaLhRFSLTm5mKlo-yTt_95pFHqfaaYH4Q4dAEpKJA4gtV_w5nIJiv-Aw6eeS1kGXe9koLs9sOiq4_mzut4tvcHuU0rS6sFZ-elPV7LYRSMcULthmsmDnLHJcmwUgmlDTXmS7TkEaFeT5ZMy8ImcsqHfMVxbD8EQ8PboswkmvP6cnTkpTfTcC4rJw4YPqXTb4ozBPmQPa3UXoBi0U1CPurGBYQ18nEMHv1iv4zmTWTS6Omd6nxWkZMAgvrXPZ5gSamBDOGovdjJHAao5oCE9NRFe6WcHbZxhQ8TOisjYWwOAHpXo48yXr5IEGRkCg1LFgnz0KwEJpXlwhqlOuooZHY478ike7QXvLL2h8eoUZPwxSfTt9Ysh8RIu4Qnnig-aqK_C8ds1GM-HmytbZD5v11pEZ7QU9FcKZY2jMQxCNl0DkHGvICrWph5bUQuBuOHnLqoTqI4siOEH4bCPrQThJbV-acZ51hTJ11-lGU9sxY24JJTZAWi9sK75HAxOQwPmPSOXnnwhENxCYDaL8enmAeIUvYaKX0ouEVAcUHAeiYffj-zOqdpIGRT6fBf-Tq2DH7KLpXiLigq0JJqxd2WRjbtlNobDV_iF8RK9r8JbpxxrEr-3wXrOM5pS9I_ADNsnSFd2FkVbg3LXtiAsq1PiQMdNVt6toVtFAJvszx_i-n04hVKWJ4HnFBbONbfQyRAsm0RhlTLUzcAV186dZO9neGLNLoM6Dh2GHGreTD46LWgns2P77r_KvfJYglFr4lm1]--></g></svg>