<svg xmlns="http://www.w3.org/2000/svg" xmlns:xlink="http://www.w3.org/1999/xlink" contentStyleType="text/css" height="508px" preserveAspectRatio="none" style="width:360px;height:508px;background:#FFFFFF;" version="1.1" viewBox="0 0 360 508" width="360px" zoomAndPan="magnify"><title>Render Layer</title><defs/><g><text fill="#000000" font-family="sans-serif" font-size="14" font-weight="bold" lengthAdjust="spacing" textLength="105.4307" x="120.7085" y="27.9951">Render Layer</text><!--class DotLayout--><g id="elem_DotLayout"><rect codeLine="30" fill="#A9DFBF" height="101.3984" id="DotLayout" style="stroke:#27AE60;stroke-width:0.5;" width="119.6924" x="7" y="214.2969"/><ellipse cx="26.1005" cy="243.8477" fill="#ADD1B2" rx="11" ry="11" style="stroke:#181818;stroke-width:1;"/><path d="M29.0693,249.4883 Q28.4912,249.7852 27.8505,249.9258 Q27.2099,250.082 26.5068,250.082 Q24.0068,250.082 22.6787,248.4414 Q21.3662,246.7852 21.3662,243.6602 Q21.3662,240.5352 22.6787,238.8789 Q24.0068,237.2227 26.5068,237.2227 Q27.2099,237.2227 27.8505,237.3789 Q28.5068,237.5352 29.0693,237.832 L29.0693,240.5508 Q28.4443,239.9727 27.8505,239.707 Q27.2568,239.4258 26.6318,239.4258 Q25.288,239.4258 24.6005,240.5039 Q23.913,241.5664 23.913,243.6602 Q23.913,245.7539 24.6005,246.832 Q25.288,247.8945 26.6318,247.8945 Q27.2568,247.8945 27.8505,247.6289 Q28.4443,247.3477 29.0693,246.7695 L29.0693,249.4883 Z " fill="#000000"/><text fill="#000000" font-family="sans-serif" font-size="12" font-style="italic" lengthAdjust="spacing" textLength="72.5801" x="44.0118" y="235.4355">&#171;ingest-ref&#187;</text><text fill="#1E8449" font-family="sans-serif" font-size="13" lengthAdjust="spacing" textLength="67.2534" x="46.6751" y="260.3325">DotLayout</text><line style="stroke:#27AE60;stroke-width:0.5;" x1="8" x2="125.6924" y1="273.3984" y2="273.3984"/><line style="stroke:#27AE60;stroke-width:0.5;" x1="8" x2="125.6924" y1="281.3984" y2="281.3984"/><text fill="#000000" font-family="sans-serif" font-size="14" lengthAdjust="spacing" textLength="97.6924" x="18" y="303.3936">(Ingest Layer)</text></g><!--class SceneGraph--><g id="elem_SceneGraph"><rect codeLine="33" fill="#F0B27A" height="101.3984" id="SceneGraph" style="stroke:#E67E22;stroke-width:0.5;" width="148.3486" x="184" y="400.2969"/><ellipse cx="206.0317" cy="429.8477" fill="#ADD1B2" rx="11" ry="11" style="stroke:#181818;stroke-width:1;"/><path d="M209.0004,435.4883 Q208.4223,435.7852 207.7817,435.9258 Q207.1411,436.082 206.4379,436.082 Q203.9379,436.082 202.6098,434.4414 Q201.2973,432.7852 201.2973,429.6602 Q201.2973,426.5352 202.6098,424.8789 Q203.9379,423.2227 206.4379,423.2227 Q207.1411,423.2227 207.7817,423.3789 Q208.4379,423.5352 209.0004,423.832 L209.0004,426.5508 Q208.3754,425.9727 207.7817,425.707 Q207.1879,425.4258 206.5629,425.4258 Q205.2192,425.4258 204.5317,426.5039 Q203.8442,427.5664 203.8442,429.6602 Q203.8442,431.7539 204.5317,432.832 Q205.2192,433.8945 206.5629,433.8945 Q207.1879,433.8945 207.7817,433.6289 Q208.3754,433.3477 209.0004,432.7695 L209.0004,435.4883 Z " fill="#000000"/><text fill="#000000" font-family="sans-serif" font-size="12" font-style="italic" lengthAdjust="spacing" textLength="94.7227" x="224.5943" y="421.4355">&#171;transform-ref&#187;</text><text fill="#CA6F1E" font-family="sans-serif" font-size="13" lengthAdjust="spacing" textLength="79.5107" x="232.2002" y="446.3325">SceneGraph</text><line style="stroke:#E67E22;stroke-width:0.5;" x1="185" x2="331.3486" y1="459.3984" y2="459.3984"/><line style="stroke:#E67E22;stroke-width:0.5;" x1="185" x2="331.3486" y1="467.3984" y2="467.3984"/><text fill="#000000" font-family="sans-serif" font-size="14" lengthAdjust="spacing" textLength="126.3486" x="195" y="489.3936">(Transform Layer)</text></g><!--class CommandDrivenScene--><g id="elem_CommandDrivenScene"><rect codeLine="38" fill="#2980B9" height="101.3984" id="CommandDrivenScene" style="stroke:#1A5276;stroke-width:0.5;" width="191.3477" x="162.5" y="214.2969"/><ellipse cx="177.5" cy="243.8477" fill="#A9DCDF" rx="11" ry="11" style="stroke:#181818;stroke-width:1;"/><path d="M177.6094,239.1914 L176.4531,244.2695 L178.7813,244.2695 L177.6094,239.1914 Z M176.125,236.957 L179.1094,236.957 L182.4688,249.3477 L180.0156,249.3477 L179.25,246.2852 L175.9688,246.2852 L175.2188,249.3477 L172.7813,249.3477 L176.125,236.957 Z " fill="#000000"/><text fill="#000000" font-family="sans-serif" font-size="12" font-style="italic" lengthAdjust="spacing" textLength="54.668" x="243.8398" y="235.4355">&#171;render&#187;</text><text fill="#2C3E50" font-family="sans-serif" font-size="13" font-style="italic" lengthAdjust="spacing" textLength="149.3477" x="196.5" y="260.3325">CommandDrivenScene</text><line style="stroke:#1A5276;stroke-width:0.5;" x1="163.5" x2="352.8477" y1="273.3984" y2="273.3984"/><line style="stroke:#1A5276;stroke-width:1;" x1="163.5" x2="352.8477" y1="281.3984" y2="281.3984"/><text fill="#2C3E50" font-family="sans-serif" font-size="14" lengthAdjust="spacing" textLength="138.5303" x="173.5" y="303.3936">+construct() : None</text></g><!--class CFGRenderer--><g id="elem_CFGRenderer"><rect codeLine="43" fill="#2980B9" height="75.1016" id="CFGRenderer" style="stroke:#1A5276;stroke-width:0.5;" width="128.8359" x="13.5" y="54.2969"/><ellipse cx="28.5" cy="83.8477" fill="#ADD1B2" rx="11" ry="11" style="stroke:#181818;stroke-width:1;"/><path d="M31.4688,89.4883 Q30.8906,89.7852 30.25,89.9258 Q29.6094,90.082 28.9063,90.082 Q26.4063,90.082 25.0781,88.4414 Q23.7656,86.7852 23.7656,83.6602 Q23.7656,80.5352 25.0781,78.8789 Q26.4063,77.2227 28.9063,77.2227 Q29.6094,77.2227 30.25,77.3789 Q30.9063,77.5352 31.4688,77.832 L31.4688,80.5508 Q30.8438,79.9727 30.25,79.707 Q29.6563,79.4258 29.0313,79.4258 Q27.6875,79.4258 27,80.5039 Q26.3125,81.5664 26.3125,83.6602 Q26.3125,85.7539 27,86.832 Q27.6875,87.8945 29.0313,87.8945 Q29.6563,87.8945 30.25,87.6289 Q30.8438,87.3477 31.4688,86.7695 L31.4688,89.4883 Z " fill="#000000"/><text fill="#000000" font-family="sans-serif" font-size="12" font-style="italic" lengthAdjust="spacing" textLength="54.668" x="63.584" y="75.4355">&#171;render&#187;</text><text fill="#2C3E50" font-family="sans-serif" font-size="13" lengthAdjust="spacing" textLength="86.8359" x="47.5" y="100.3325">CFGRenderer</text><line style="stroke:#1A5276;stroke-width:0.5;" x1="14.5" x2="141.3359" y1="113.3984" y2="113.3984"/><line style="stroke:#1A5276;stroke-width:0.5;" x1="14.5" x2="141.3359" y1="121.3984" y2="121.3984"/></g><!--class StackRenderer--><g id="elem_StackRenderer"><rect codeLine="44" fill="#2980B9" height="75.1016" id="StackRenderer" style="stroke:#1A5276;stroke-width:0.5;" width="138.1987" x="189" y="54.2969"/><ellipse cx="204" cy="83.8477" fill="#ADD1B2" rx="11" ry="11" style="stroke:#181818;stroke-width:1;"/><path d="M206.9688,89.4883 Q206.3906,89.7852 205.75,89.9258 Q205.1094,90.082 204.4063,90.082 Q201.9063,90.082 200.5781,88.4414 Q199.2656,86.7852 199.2656,83.6602 Q199.2656,80.5352 200.5781,78.8789 Q201.9063,77.2227 204.4063,77.2227 Q205.1094,77.2227 205.75,77.3789 Q206.4063,77.5352 206.9688,77.832 L206.9688,80.5508 Q206.3438,79.9727 205.75,79.707 Q205.1563,79.4258 204.5313,79.4258 Q203.1875,79.4258 202.5,80.5039 Q201.8125,81.5664 201.8125,83.6602 Q201.8125,85.7539 202.5,86.832 Q203.1875,87.8945 204.5313,87.8945 Q205.1563,87.8945 205.75,87.6289 Q206.3438,87.3477 206.9688,86.7695 L206.9688,89.4883 Z " fill="#000000"/><text fill="#000000" font-family="sans-serif" font-size="12" font-style="italic" lengthAdjust="spacing" textLength="54.668" x="243.7654" y="75.4355">&#171;render&#187;</text><text fill="#2C3E50" font-family="sans-serif" font-size="13" lengthAdjust="spacing" textLength="96.1987" x="223" y="100.3325">StackRenderer</text><line style="stroke:#1A5276;stroke-width:0.5;" x1="190" x2="326.1987" y1="113.3984" y2="113.3984"/><line style="stroke:#1A5276;stroke-width:0.5;" x1="190" x2="326.1987" y1="121.3984" y2="121.3984"/></g><!--link CFGRenderer to CommandDrivenScene--><g id="link_CFGRenderer_CommandDrivenScene"><path codeLine="47" d="M139.21,129.4369 C152.28,138.4669 165.58,148.6269 177,159.2969 C194.44,175.5969 200.3608,181.4366 213.9708,199.7966 " fill="none" id="CFGRenderer-to-CommandDrivenScene" style="stroke:#555555;stroke-width:1;"/><polygon fill="none" points="224.69,214.2569,218.7909,196.2236,209.1507,203.3697,224.69,214.2569" style="stroke:#555555;stroke-width:1;"/></g><!--link StackRenderer to CommandDrivenScene--><g id="link_StackRenderer_CommandDrivenScene"><path codeLine="48" d="M258,129.4769 C258,154.2069 258,169.1369 258,196.1969 " fill="none" id="StackRenderer-to-CommandDrivenScene" style="stroke:#555555;stroke-width:1;"/><polygon fill="none" points="258,214.1969,264,196.1969,252,196.1969,258,214.1969" style="stroke:#555555;stroke-width:1;"/></g><!--link CommandDrivenScene to SceneGraph--><g id="link_CommandDrivenScene_SceneGraph"><path codeLine="50" d="M258,315.5869 C258,341.8769 258,368.0369 258,394.2869 " fill="none" id="CommandDrivenScene-to-SceneGraph" style="stroke:#555555;stroke-width:1;stroke-dasharray:7.0,7.0;"/><polygon fill="#555555" points="258,400.2869,262,391.2869,258,395.2869,254,391.2869,258,400.2869" style="stroke:#555555;stroke-width:1;"/><text fill="#555555" font-family="sans-serif" font-size="12" lengthAdjust="spacing" textLength="81.1172" x="264" y="362.4355">&#171;uses&#187; graph</text></g><!--link CFGRenderer to DotLayout--><g id="link_CFGRenderer_DotLayout"><path codeLine="51" d="M75.64,129.4769 C74.05,154.2069 72.315,181.1492 70.575,208.2092 " fill="none" id="CFGRenderer-to-DotLayout" style="stroke:#555555;stroke-width:1;stroke-dasharray:7.0,7.0;"/><polygon fill="#555555" points="70.19,214.1969,74.7593,205.4721,70.5108,209.2072,66.7758,204.9587,70.19,214.1969" style="stroke:#555555;stroke-width:1;"/><text fill="#555555" font-family="sans-serif" font-size="12" lengthAdjust="spacing" textLength="83.4316" x="80" y="176.4355">&#171;uses&#187; layout</text></g><!--SRC=[pLHRRjim4FpdAHRGHnCK2cJ5ZpW83AGEd0OeYYBk1IXfQGkHI8EaMlG5z12zHO_Glnob9-cAL6nPjjh-jOG0GSlPtPdbK3Qt1S8zoWmrlE8VK3Dc7dAvuPgNa1RSc6jhTPvK5kzI9PVvHuIe1RdMMhsVgq9f24PkTJSNIje_0bpTGTpQUiEpB9ShQCFlLIMpkTAIo4O7HE4J0rgxSkVk-oLo4hUB3faBl-3fmqhxWaJkwegQeR6XHZ6RrO20JpEH20zMcchq01qudd0SHri2lu4IU80Nm-6qXuVLN1gXTDca1I9AgFeXZoxGbSRn1EEuo-CObC0f7ui1zl3GpXHjYTEBA9aUykW2lKG-YYVZBezZK08lt7BWhTlw-GIOY958zk5zJO8uFSTHnBumzWp249QsIWm8hKfGTaq-AchJ6zhwkyMyrMwKfTkYAWkTG_OUFBbpCN-ZJgcvprgcAF5MyyqQ3i-aoNpx5Dub4_EVtxxIytHHNJKqJVGVFemdXdIajhc1SrMMN6OtEd-7qgc5rdbuXJJ3-lKSw7T2oLLgJqxX4buhYRNMfj3YrcibjR1N0xR3jEIGBQW3QO-iu3QdLkjyynzCh9dRlhum_3mxCZksBx4FnOvC_UnirdRR9Jn-hyWnZpzWLGSw_TsgKtQsRgSKBiH-0G00]--></g></svg>